# Blender v2.77 (sub 0) OBJ File: 'Rogue.blend'
# www.blender.org
mtllib Rogue.mtl
o Cube
v 1.000000 -1.000000 -1.000000
v 1.000000 -1.000000 1.000000
v -1.000000 -1.000000 1.000000
v -1.000000 -1.000000 -1.000000
v 1.000000 1.000000 -0.999999
v 0.999999 1.000000 1.000001
v -1.000000 1.000000 1.000000
v -1.000000 1.000000 -1.000000
vt 0.6187 0.2602
vt 0.6187 0.5003
vt 0.3786 0.5003
vt 0.3786 0.2602
vt 0.6186 0.9804
vt 0.3785 0.9804
vt 0.3785 0.7403
vt 0.6186 0.7403
vt 0.8587 0.5002
vt 0.8587 0.7403
vt 0.6187 0.7403
vt 0.6187 0.5002
vt 0.3786 0.7404
vt 0.1385 0.7404
vt 0.1385 0.5003
vt 0.3786 0.2602
vt 0.3786 0.0201
vt 0.6187 0.0201
vt 0.6187 0.2602
vn 0.0000 -1.0000 0.0000
vn 0.0000 1.0000 0.0000
vn 1.0000 0.0000 0.0000
vn -0.0000 -0.0000 1.0000
vn -1.0000 -0.0000 -0.0000
vn 0.0000 0.0000 -1.0000
usemtl Material
s off
f 1/1/1 2/2/1 3/3/1 4/4/1
f 5/5/2 8/6/2 7/7/2 6/8/2
f 1/9/3 5/10/3 6/11/3 2/12/3
f 2/2/4 6/11/4 7/13/4 3/3/4
f 3/3/5 7/13/5 8/14/5 4/15/5
f 5/16/6 1/17/6 4/18/6 8/19/6
